<svg id="geometric_pattern" xmlns="http://www.w3.org/2000/svg" viewBox="0 0 100 100"><defs><style>.cls-1{fill:#00ff4e;}</style></defs><title>geometric_pattern</title><g id="circle_ul"><path class="cls-1" d="M555.24,384.72a29.8,29.8,0,1,0,0,59.6c1,0,1.91-.05,2.85-.14L585,417.36q.14-1.41.14-2.85A29.82,29.82,0,0,0,555.24,384.72Z" transform="translate(-223.55 -82.91)"/></g><g id="circle_ur"><path class="cls-1" d="M620.37,384.72a29.82,29.82,0,0,0-29.85,29.8c0,1,0,1.91.14,2.85l26.86,26.81c.94.09,1.89.14,2.85.14a29.8,29.8,0,1,0,0-59.6Z" transform="translate(-223.55 -82.91)"/></g><g id="circle_dl"><path class="cls-1" d="M558.1,449.87c-.94-.09-1.89-.14-2.85-.14a29.8,29.8,0,1,0,29.85,29.8q0-1.44-.14-2.85Z" transform="translate(-223.55 -82.91)"/></g><g id="circle_dr"><path class="cls-1" d="M620.37,449.73c-1,0-1.91,0-2.85.14l-26.86,26.81c-.09.94-.14,1.89-.14,2.85a29.85,29.85,0,1,0,29.85-29.8Z" transform="translate(-223.55 -82.91)"/></g></svg>
